<svg data-logo="logo" xmlns="http://www.w3.org/2000/svg" viewBox="0 0 185 43">
            <g style="opacity: 1;" id="logogram" transform="translate(0, 1) rotate(0)"><path fill-rule="evenodd" clip-rule="evenodd" d="M20.9053 40.0799C31.951 40.0799 40.9053 31.1256 40.9053 20.0799C40.9053 9.03427 31.951 0.0799561 20.9053 0.0799561C9.85956 0.0799561 0.905273 9.03427 0.905273 20.0799C0.905273 31.1256 9.85956 40.0799 20.9053 40.0799ZM27.1446 9.3968C27.4483 8.31801 26.4014 7.68008 25.4453 8.36125L12.0984 17.8695C11.0615 18.6082 11.2246 20.0799 12.3434 20.0799H15.858V20.0527H22.7078L17.1265 22.022L14.666 30.7631C14.3623 31.8419 15.4091 32.4798 16.3653 31.7986L29.7122 22.2904C30.7491 21.5517 30.5859 20.0799 29.4672 20.0799H24.1374L27.1446 9.3968Z" fill="#0052CC"></path></g>
            <g style="opacity: 1;" id="logotype" transform="translate(47, 1)"><path fill="#172B4D" d="M13.52 34L8.31 34L8.31 8.54L18.24 8.54Q21.14 8.54 23.18 9.64Q25.21 10.74 26.28 12.68Q27.35 14.62 27.35 17.13L27.35 17.13Q27.35 19.66 26.26 21.58Q25.17 23.51 23.12 24.59Q21.06 25.68 18.12 25.68L18.12 25.68L11.73 25.68L11.73 21.47L17.28 21.47Q18.89 21.47 19.92 20.92Q20.95 20.36 21.46 19.39Q21.96 18.41 21.96 17.13L21.96 17.13Q21.96 15.85 21.46 14.88Q20.95 13.90 19.91 13.37Q18.87 12.84 17.26 12.84L17.26 12.84L13.52 12.84L13.52 34ZM33.72 34L28.59 34L28.59 14.89L33.55 14.89L33.55 18.23L33.75 18.23Q34.28 16.45 35.52 15.54Q36.76 14.64 38.37 14.64L38.37 14.64Q38.76 14.64 39.21 14.68Q39.66 14.72 40.02 14.81L40.02 14.81L40.02 19.39Q39.68 19.27 39.03 19.20Q38.38 19.13 37.80 19.13L37.80 19.13Q36.64 19.13 35.70 19.64Q34.76 20.14 34.24 21.04Q33.72 21.93 33.72 23.13L33.72 23.13L33.72 34ZM49.11 34.38L49.11 34.38Q46.24 34.38 44.14 33.14Q42.04 31.90 40.90 29.68Q39.77 27.47 39.77 24.53L39.77 24.53Q39.77 21.56 40.90 19.35Q42.04 17.13 44.14 15.89Q46.24 14.65 49.11 14.65L49.11 14.65Q52.00 14.65 54.10 15.89Q56.19 17.13 57.33 19.35Q58.46 21.56 58.46 24.53L58.46 24.53Q58.46 27.47 57.33 29.68Q56.19 31.90 54.10 33.14Q52.00 34.38 49.11 34.38ZM49.11 30.34L49.11 30.34Q50.48 30.34 51.40 29.58Q52.33 28.82 52.79 27.50Q53.25 26.17 53.25 24.52L53.25 24.52Q53.25 22.82 52.79 21.51Q52.33 20.19 51.40 19.44Q50.48 18.69 49.11 18.69L49.11 18.69Q47.75 18.69 46.83 19.44Q45.92 20.19 45.46 21.51Q44.99 22.82 44.99 24.52L44.99 24.52Q44.99 26.17 45.46 27.50Q45.92 28.82 46.83 29.58Q47.75 30.34 49.11 30.34ZM59.74 34.91L59.74 14.89L64.89 14.89L64.89 34.97Q64.89 37.16 64.03 38.52Q63.18 39.88 61.58 40.51Q59.98 41.14 57.76 41.14L57.76 41.14L56.72 41.14L56.72 37.11L57.40 37.11Q58.70 37.11 59.22 36.55Q59.74 36.00 59.74 34.91L59.74 34.91ZM62.32 12.40L62.32 12.40Q61.16 12.40 60.34 11.63Q59.52 10.86 59.52 9.77L59.52 9.77Q59.52 8.67 60.34 7.90Q61.16 7.13 62.32 7.13L62.32 7.13Q63.48 7.13 64.31 7.90Q65.14 8.66 65.14 9.77L65.14 9.77Q65.14 10.86 64.31 11.63Q63.48 12.40 62.32 12.40ZM75.60 34.38L75.60 34.38Q72.68 34.38 70.56 33.18Q68.44 31.98 67.30 29.78Q66.17 27.57 66.17 24.55L66.17 24.55Q66.17 21.59 67.29 19.37Q68.42 17.15 70.49 15.90Q72.56 14.65 75.34 14.65L75.34 14.65Q77.22 14.65 78.85 15.25Q80.47 15.85 81.70 17.06Q82.93 18.26 83.62 20.07Q84.31 21.88 84.31 24.34L84.31 24.34L84.31 25.78L68.27 25.78L68.27 22.57L81.80 22.57L79.41 23.42Q79.41 21.93 78.96 20.83Q78.50 19.73 77.61 19.12Q76.71 18.52 75.38 18.52L75.38 18.52Q74.06 18.52 73.13 19.13Q72.20 19.75 71.72 20.80Q71.24 21.85 71.24 23.20L71.24 23.20L71.24 25.47Q71.24 27.13 71.80 28.26Q72.35 29.39 73.35 29.95Q74.35 30.51 75.68 30.51L75.68 30.51Q76.59 30.51 77.32 30.26Q78.06 30.00 78.58 29.50Q79.10 28.99 79.38 28.26L79.38 28.26L84.02 29.13Q83.56 30.70 82.42 31.89Q81.27 33.08 79.56 33.73Q77.84 34.38 75.60 34.38ZM94.09 34.38L94.09 34.38Q91.20 34.38 89.11 33.14Q87.01 31.90 85.88 29.68Q84.74 27.47 84.74 24.53L84.74 24.53Q84.74 21.56 85.88 19.35Q87.01 17.13 89.11 15.89Q91.20 14.65 94.09 14.65L94.09 14.65Q95.78 14.65 97.22 15.10Q98.65 15.54 99.76 16.36Q100.87 17.18 101.59 18.36Q102.31 19.54 102.58 21.01L102.58 21.01L97.81 21.90Q97.66 21.15 97.33 20.56Q97.01 19.97 96.55 19.55Q96.09 19.13 95.48 18.91Q94.87 18.69 94.14 18.69L94.14 18.69Q92.77 18.69 91.84 19.42Q90.91 20.16 90.44 21.47Q89.97 22.79 89.97 24.52L89.97 24.52Q89.97 26.22 90.44 27.53Q90.91 28.84 91.84 29.59Q92.77 30.34 94.14 30.34L94.14 30.34Q94.87 30.34 95.49 30.11Q96.10 29.88 96.58 29.45Q97.06 29.01 97.39 28.39Q97.71 27.78 97.85 27.01L97.85 27.01L102.62 27.88Q102.34 29.40 101.62 30.59Q100.91 31.78 99.80 32.63Q98.69 33.49 97.24 33.93Q95.80 34.38 94.09 34.38ZM102.02 14.89L113.35 14.89L113.35 18.81L102.02 18.81L102.02 14.89ZM104.65 28.86L104.65 10.35L109.77 10.35L109.77 28.41Q109.77 29.32 110.18 29.75Q110.58 30.19 111.52 30.19L111.52 30.19Q111.81 30.19 112.34 30.11Q112.87 30.04 113.14 29.97L113.14 29.97L113.88 33.81Q113.02 34.07 112.18 34.17Q111.33 34.27 110.56 34.27L110.56 34.27Q107.69 34.27 106.17 32.87Q104.65 31.47 104.65 28.86L104.65 28.86ZM119.12 34L113.09 34L123.60 19.05L123.60 23.01L113.91 8.54L119.96 8.54L122.74 12.81Q123.53 14.02 124.03 14.99Q124.54 15.95 124.96 16.85Q125.38 17.75 125.89 18.70L125.89 18.70L124.50 18.70Q125.02 17.75 125.44 16.86Q125.87 15.97 126.38 15.00Q126.90 14.02 127.68 12.81L127.68 12.81L130.52 8.54L136.43 8.54L126.91 22.72L126.91 18.96L137.18 34L131.00 34L127.46 28.67Q126.76 27.59 126.32 26.84Q125.89 26.09 125.54 25.41Q125.19 24.74 124.73 23.90L124.73 23.90L125.55 23.90Q125.10 24.72 124.74 25.40Q124.38 26.07 123.94 26.83Q123.50 27.59 122.78 28.67L122.78 28.67L119.12 34Z"></path></g>
            
          </svg>